<svg width="24" height="24" viewBox="0 0 24 24" fill="none" xmlns="http://www.w3.org/2000/svg">
<path fill-rule="evenodd" clip-rule="evenodd" d="M17.8333 3.66667H6.16667C4.78595 3.66667 3.66667 4.78595 3.66667 6.16667V17.8333C3.66667 19.214 4.78595 20.3333 6.16667 20.3333H17.8333C19.214 20.3333 20.3333 19.214 20.3333 17.8333V6.16667C20.3333 4.78595 19.214 3.66667 17.8333 3.66667ZM6.16667 2C3.86548 2 2 3.86548 2 6.16667V17.8333C2 20.1345 3.86548 22 6.16667 22H17.8333C20.1345 22 22 20.1345 22 17.8333V6.16667C22 3.86548 20.1345 2 17.8333 2H6.16667Z" fill="white"/>
<path d="M12 6.4952L7.5 8.0702V10.6C7.50011 11.4998 7.70626 12.3892 8.10466 13.2085C8.50306 14.0279 9.08449 14.7584 9.81 15.3509L12 17.1394V6.4952ZM6.48675 6.9292L12 5L17.5132 6.9299C17.6562 6.97991 17.7794 7.06942 17.8663 7.1865C17.9533 7.30358 17.9999 7.44263 18 7.5851V10.6C18 12.8239 16.971 14.94 15.1778 16.4051L12 19L8.82225 16.4051C7.93576 15.6811 7.22533 14.7886 6.73858 13.7874C6.25184 12.7862 6.00002 11.6994 6 10.6L6 7.5851C6.00006 7.44263 6.04669 7.30358 6.13366 7.1865C6.22064 7.06942 6.34382 6.97921 6.48675 6.9292Z" fill="white"/>
</svg>
