<svg width="24" height="24" viewBox="0 0 24 24" fill="none" xmlns="http://www.w3.org/2000/svg">
<path d="M19.05 21.6L16.125 18.7L14.625 20.2C14.4417 20.3833 14.2083 20.475 13.925 20.475C13.6417 20.475 13.4083 20.3833 13.225 20.2C12.8417 19.8167 12.65 19.3417 12.65 18.775C12.65 18.2083 12.8417 17.7333 13.225 17.35L17.45 13.125C17.8333 12.7417 18.3083 12.55 18.875 12.55C19.4417 12.55 19.9167 12.7417 20.3 13.125C20.4833 13.3083 20.575 13.5417 20.575 13.825C20.575 14.1083 20.4833 14.3417 20.3 14.525L18.8 16.025L21.7 18.95C21.9 19.15 22 19.3833 22 19.65C22 19.9167 21.9 20.15 21.7 20.35L20.45 21.6C20.25 21.8 20.0167 21.9 19.75 21.9C19.4833 21.9 19.25 21.8 19.05 21.6ZM21.7 6.2L10.65 17.25L10.775 17.35C11.1583 17.7333 11.35 18.2083 11.35 18.775C11.35 19.3417 11.1583 19.8167 10.775 20.2C10.5917 20.3833 10.3583 20.475 10.075 20.475C9.79167 20.475 9.55833 20.3833 9.375 20.2L7.875 18.7L4.95 21.6C4.75 21.8 4.51667 21.9 4.25 21.9C3.98333 21.9 3.75 21.8 3.55 21.6L2.3 20.35C2.1 20.15 2 19.9167 2 19.65C2 19.3833 2.1 19.15 2.3 18.95L5.2 16.025L3.7 14.525C3.51667 14.3417 3.425 14.1083 3.425 13.825C3.425 13.5417 3.51667 13.3083 3.7 13.125C4.08333 12.7417 4.55833 12.55 5.125 12.55C5.69167 12.55 6.16667 12.7417 6.55 13.125L6.65 13.25L17.425 2.475C17.6083 2.29167 17.821 2.15 18.063 2.05C18.305 1.95 18.559 1.9 18.825 1.9H21C21.2833 1.9 21.521 1.996 21.713 2.188C21.905 2.38 22.0007 2.61733 22 2.9V5.475C22 5.60833 21.975 5.73767 21.925 5.863C21.875 5.98833 21.8 6.10067 21.7 6.2ZM6.225 10.125L2.575 6.475C2.39167 6.29167 2.25 6.07933 2.15 5.838C2.05 5.59667 2 5.34233 2 5.075V2.9C2 2.61667 2.096 2.37933 2.288 2.188C2.48 1.99667 2.71733 1.90067 3 1.9H5.175C5.44167 1.9 5.696 1.95 5.938 2.05C6.18 2.15 6.39233 2.29167 6.575 2.475L10.25 6.15C10.45 6.35 10.546 6.58333 10.538 6.85C10.53 7.11667 10.4257 7.35 10.225 7.55C10.025 7.73333 9.79167 7.82933 9.525 7.838C9.25833 7.84667 9.025 7.75067 8.825 7.55L5.175 3.9H4V5.075L7.65 8.725C7.83333 8.90834 7.925 9.13767 7.925 9.413C7.925 9.68833 7.83333 9.92567 7.65 10.125C7.45 10.325 7.21267 10.425 6.938 10.425C6.66333 10.425 6.42567 10.325 6.225 10.125ZM9.25 15.825L20 5.075V3.9H18.825L8.075 14.65L9.25 15.825Z" fill="white"/>
</svg>
