<svg width="400" height="300" viewBox="0 0 400 300" fill="none" xmlns="http://www.w3.org/2000/svg">
<path d="M233.03 149C235.897 149 238.13 148.1 239.73 146.3C241.397 144.5 242.23 142.133 242.23 139.2C242.23 136.4 241.264 134.033 239.33 132.1C237.397 130.167 234.764 129.2 231.43 129.2C229.63 129.2 228.03 129.533 226.63 130.2C225.23 130.8 224.03 131.667 223.03 132.8C222.03 133.867 221.264 135.133 220.73 136.6C220.264 138 220.03 139.467 220.03 141V145.2H206.83V139.8C206.83 136.8 207.364 133.9 208.43 131.1C209.564 128.3 211.164 125.833 213.23 123.7C215.364 121.567 217.964 119.867 221.03 118.6C224.164 117.267 227.697 116.6 231.63 116.6C235.164 116.6 238.397 117.2 241.33 118.4C244.264 119.533 246.764 121.133 248.83 123.2C250.964 125.267 252.597 127.7 253.73 130.5C254.864 133.233 255.43 136.2 255.43 139.4V140C255.43 142.733 254.997 145.333 254.13 147.8C253.33 150.267 252.164 152.433 250.63 154.3C249.097 156.167 247.197 157.667 244.93 158.8C242.664 159.933 240.13 160.5 237.33 160.5C236.397 160.5 235.697 160.767 235.23 161.3C234.764 161.833 234.53 162.567 234.53 163.5V166.8H221.93V158.2C221.93 155.6 222.797 153.433 224.53 151.7C226.33 149.9 228.53 149 231.13 149H233.03ZM237.83 179.9C237.83 181.233 237.564 182.5 237.03 183.7C236.564 184.833 235.897 185.833 235.03 186.7C234.164 187.5 233.13 188.133 231.93 188.6C230.797 189.133 229.597 189.4 228.33 189.4C226.997 189.4 225.764 189.133 224.63 188.6C223.497 188.133 222.497 187.5 221.63 186.7C220.764 185.833 220.064 184.833 219.53 183.7C219.064 182.5 218.83 181.233 218.83 179.9C218.83 178.567 219.064 177.333 219.53 176.2C220.064 175 220.764 174 221.63 173.2C222.497 172.333 223.497 171.667 224.63 171.2C225.764 170.667 226.997 170.4 228.33 170.4C229.597 170.4 230.797 170.667 231.93 171.2C233.13 171.667 234.164 172.333 235.03 173.2C235.897 174 236.564 175 237.03 176.2C237.564 177.333 237.83 178.567 237.83 179.9Z" fill="white"/>
<path d="M171.8 149C174.667 149 176.9 148.1 178.5 146.3C180.167 144.5 181 142.133 181 139.2C181 136.4 180.033 134.033 178.1 132.1C176.167 130.167 173.533 129.2 170.2 129.2C168.4 129.2 166.8 129.533 165.4 130.2C164 130.8 162.8 131.667 161.8 132.8C160.8 133.867 160.033 135.133 159.5 136.6C159.033 138 158.8 139.467 158.8 141V145.2H145.6V139.8C145.6 136.8 146.133 133.9 147.2 131.1C148.333 128.3 149.933 125.833 152 123.7C154.133 121.567 156.733 119.867 159.8 118.6C162.933 117.267 166.467 116.6 170.4 116.6C173.933 116.6 177.167 117.2 180.1 118.4C183.033 119.533 185.533 121.133 187.6 123.2C189.733 125.267 191.367 127.7 192.5 130.5C193.633 133.233 194.2 136.2 194.2 139.4V140C194.2 142.733 193.767 145.333 192.9 147.8C192.1 150.267 190.933 152.433 189.4 154.3C187.867 156.167 185.967 157.667 183.7 158.8C181.433 159.933 178.9 160.5 176.1 160.5C175.167 160.5 174.467 160.767 174 161.3C173.533 161.833 173.3 162.567 173.3 163.5V166.8H160.7V158.2C160.7 155.6 161.567 153.433 163.3 151.7C165.1 149.9 167.3 149 169.9 149H171.8ZM176.6 179.9C176.6 181.233 176.333 182.5 175.8 183.7C175.333 184.833 174.667 185.833 173.8 186.7C172.933 187.5 171.9 188.133 170.7 188.6C169.567 189.133 168.367 189.4 167.1 189.4C165.767 189.4 164.533 189.133 163.4 188.6C162.267 188.133 161.267 187.5 160.4 186.7C159.533 185.833 158.833 184.833 158.3 183.7C157.833 182.5 157.6 181.233 157.6 179.9C157.6 178.567 157.833 177.333 158.3 176.2C158.833 175 159.533 174 160.4 173.2C161.267 172.333 162.267 171.667 163.4 171.2C164.533 170.667 165.767 170.4 167.1 170.4C168.367 170.4 169.567 170.667 170.7 171.2C171.9 171.667 172.933 172.333 173.8 173.2C174.667 174 175.333 175 175.8 176.2C176.333 177.333 176.6 178.567 176.6 179.9Z" fill="white"/>
</svg>
