<svg width="24" height="24" viewBox="0 0 24 24" fill="none" xmlns="http://www.w3.org/2000/svg">
<path d="M12 17H10.1567L9.32288 15L8.45611 13.2133L7.58934 15L6.81034 17H5L6.11912 15L7.58934 11.92L6.19592 8.93333L5.13166 7H6.96395L7.721 8.93333L8.48903 10.5333L9.22414 8.93333L9.95925 7H11.7476L10.6944 8.93333L9.36677 11.8533L10.8699 15L12 17Z" fill="white"/>
<path d="M16.1264 7C16.6935 7 17.1916 7.13778 17.6207 7.41333C18.0575 7.68 18.3946 8.07556 18.6322 8.6C18.8774 9.12444 19 9.76444 19 10.52C19 11.2489 18.8774 11.8844 18.6322 12.4267C18.387 12.96 18.046 13.3689 17.6092 13.6533C17.1801 13.9289 16.682 14.0667 16.1149 14.0667H14.5287V15L14.6207 17H13L13.1034 15V8.93333L13 7H16.1264ZM15.6897 12.48C16.3487 12.48 16.8161 12.3333 17.092 12.04C17.3678 11.7467 17.5057 11.24 17.5057 10.52C17.5057 9.81778 17.3678 9.32 17.092 9.02667C16.8238 8.73333 16.364 8.58667 15.7126 8.58667H14.5287V12.48H15.6897Z" fill="white"/>
<path d="M8 3H16C18.7614 3 21 5.23858 21 8V16C21 18.7614 18.7614 21 16 21H8C5.23858 21 3 18.7614 3 16V8C3 5.23858 5.23858 3 8 3Z" stroke="white" stroke-width="2"/>
</svg>
