<svg width="24" height="24" viewBox="0 0 24 24" fill="none" xmlns="http://www.w3.org/2000/svg">
<path fill-rule="evenodd" clip-rule="evenodd" d="M17.8333 3.66667H6.16667C4.78595 3.66667 3.66667 4.78595 3.66667 6.16667V17.8333C3.66667 19.214 4.78595 20.3333 6.16667 20.3333H17.8333C19.214 20.3333 20.3333 19.214 20.3333 17.8333V6.16667C20.3333 4.78595 19.214 3.66667 17.8333 3.66667ZM6.16667 2C3.86548 2 2 3.86548 2 6.16667V17.8333C2 20.1345 3.86548 22 6.16667 22H17.8333C20.1345 22 22 20.1345 22 17.8333V6.16667C22 3.86548 20.1345 2 17.8333 2H6.16667Z" fill="white"/>
<path d="M16.0726 7C16.9739 7 17.6853 7.30667 18.2067 7.92C18.7356 8.52444 19 9.39111 19 10.52C19 11.2578 18.8771 11.8933 18.6313 12.4267C18.3929 12.96 18.0503 13.3689 17.6034 13.6533C17.1639 13.9289 16.6499 14.0667 16.0615 14.0667H14.7207V15L14.8324 17H13L13.1117 15V8.93333L13 7H16.0726ZM15.6034 12.2267C16.0503 12.2267 16.3966 12.1778 16.6425 12.08C16.8883 11.9733 17.0633 11.8 17.1676 11.56C17.2719 11.3111 17.324 10.9644 17.324 10.52C17.324 10.0933 17.2719 9.76 17.1676 9.52C17.0633 9.28 16.8883 9.10667 16.6425 9C16.3966 8.89333 16.0577 8.84 15.6257 8.84H14.7207V12.2267H15.6034Z" fill="white"/>
<path d="M13 17H10.6269L9.78287 15L8.9633 13.4667L8.15596 15L7.36086 17H5L6.23547 15L7.80122 11.92L6.3211 8.93333L5.13456 7H7.50765L8.29052 8.93333L8.97554 10.2667L9.64832 8.93333L10.3823 7H12.7431L11.5688 8.93333L10.1376 11.8667L11.7523 15L13 17Z" fill="white"/>
</svg>
